<svg width="1363" height="163" viewBox="0 0 1363 163" fill="none" xmlns="http://www.w3.org/2000/svg">
<path d="M0 15C0 6.71573 6.71573 0 15 0H37V163H15C6.71573 163 0 156.284 0 148V15Z" fill="#7A7A7A"/>
<rect width="1097" height="163" transform="translate(37)" fill="#F0F0F0"/>
<path d="M101.906 53.9219L94.3945 51.2383V48.0859L104.602 52.375V54.6367L101.906 53.9219ZM94.3945 56.1719L101.918 53.4297L104.602 52.7852V55.0352L94.3945 59.3242V56.1719ZM119.543 54.918H115.195V52.1758H119.543C120.215 52.1758 120.762 52.0664 121.184 51.8477C121.605 51.6211 121.914 51.3086 122.109 50.9102C122.305 50.5117 122.402 50.0625 122.402 49.5625C122.402 49.0547 122.305 48.582 122.109 48.1445C121.914 47.707 121.605 47.3555 121.184 47.0898C120.762 46.8242 120.215 46.6914 119.543 46.6914H116.414V61H112.898V43.9375H119.543C120.879 43.9375 122.023 44.1797 122.977 44.6641C123.938 45.1406 124.672 45.8008 125.18 46.6445C125.688 47.4883 125.941 48.4531 125.941 49.5391C125.941 50.6406 125.688 51.5938 125.18 52.3984C124.672 53.2031 123.938 53.8242 122.977 54.2617C122.023 54.6992 120.879 54.918 119.543 54.918ZM131.531 51.0859V61H128.156V48.3203H131.332L131.531 51.0859ZM135.352 48.2383L135.293 51.3672C135.129 51.3438 134.93 51.3242 134.695 51.3086C134.469 51.2852 134.262 51.2734 134.074 51.2734C133.598 51.2734 133.184 51.3359 132.832 51.4609C132.488 51.5781 132.199 51.7539 131.965 51.9883C131.738 52.2227 131.566 52.5078 131.449 52.8438C131.34 53.1797 131.277 53.5625 131.262 53.9922L130.582 53.7812C130.582 52.9609 130.664 52.207 130.828 51.5195C130.992 50.8242 131.23 50.2188 131.543 49.7031C131.863 49.1875 132.254 48.7891 132.715 48.5078C133.176 48.2266 133.703 48.0859 134.297 48.0859C134.484 48.0859 134.676 48.1016 134.871 48.1328C135.066 48.1562 135.227 48.1914 135.352 48.2383ZM140.508 48.3203V61H137.121V48.3203H140.508ZM136.91 45.0156C136.91 44.5234 137.082 44.1172 137.426 43.7969C137.77 43.4766 138.23 43.3164 138.809 43.3164C139.379 43.3164 139.836 43.4766 140.18 43.7969C140.531 44.1172 140.707 44.5234 140.707 45.0156C140.707 45.5078 140.531 45.9141 140.18 46.2344C139.836 46.5547 139.379 46.7148 138.809 46.7148C138.23 46.7148 137.77 46.5547 137.426 46.2344C137.082 45.9141 136.91 45.5078 136.91 45.0156ZM148.535 58.5977C148.949 58.5977 149.316 58.5195 149.637 58.3633C149.957 58.1992 150.207 57.9727 150.387 57.6836C150.574 57.3867 150.672 57.0391 150.68 56.6406H153.855C153.848 57.5312 153.609 58.3242 153.141 59.0195C152.672 59.707 152.043 60.25 151.254 60.6484C150.465 61.0391 149.582 61.2344 148.605 61.2344C147.621 61.2344 146.762 61.0703 146.027 60.7422C145.301 60.4141 144.695 59.9609 144.211 59.3828C143.727 58.7969 143.363 58.1172 143.121 57.3438C142.879 56.5625 142.758 55.7266 142.758 54.8359V54.4961C142.758 53.5977 142.879 52.7617 143.121 51.9883C143.363 51.207 143.727 50.5273 144.211 49.9492C144.695 49.3633 145.301 48.9062 146.027 48.5781C146.754 48.25 147.605 48.0859 148.582 48.0859C149.621 48.0859 150.531 48.2852 151.312 48.6836C152.102 49.082 152.719 49.6523 153.164 50.3945C153.617 51.1289 153.848 52 153.855 53.0078H150.68C150.672 52.5859 150.582 52.2031 150.41 51.8594C150.246 51.5156 150.004 51.2422 149.684 51.0391C149.371 50.8281 148.984 50.7227 148.523 50.7227C148.031 50.7227 147.629 50.8281 147.316 51.0391C147.004 51.2422 146.762 51.5234 146.59 51.8828C146.418 52.2344 146.297 52.6367 146.227 53.0898C146.164 53.5352 146.133 54.0039 146.133 54.4961V54.8359C146.133 55.3281 146.164 55.8008 146.227 56.2539C146.289 56.707 146.406 57.1094 146.578 57.4609C146.758 57.8125 147.004 58.0898 147.316 58.293C147.629 58.4961 148.035 58.5977 148.535 58.5977ZM161.648 61.2344C160.664 61.2344 159.781 61.0781 159 60.7656C158.219 60.4453 157.555 60.0039 157.008 59.4414C156.469 58.8789 156.055 58.2266 155.766 57.4844C155.477 56.7344 155.332 55.9375 155.332 55.0938V54.625C155.332 53.6641 155.469 52.7852 155.742 51.9883C156.016 51.1914 156.406 50.5 156.914 49.9141C157.43 49.3281 158.055 48.8789 158.789 48.5664C159.523 48.2461 160.352 48.0859 161.273 48.0859C162.172 48.0859 162.969 48.2344 163.664 48.5312C164.359 48.8281 164.941 49.25 165.41 49.7969C165.887 50.3438 166.246 51 166.488 51.7656C166.73 52.5234 166.852 53.3672 166.852 54.2969V55.7031H156.773V53.4531H163.535V53.1953C163.535 52.7266 163.449 52.3086 163.277 51.9414C163.113 51.5664 162.863 51.2695 162.527 51.0508C162.191 50.832 161.762 50.7227 161.238 50.7227C160.793 50.7227 160.41 50.8203 160.09 51.0156C159.77 51.2109 159.508 51.4844 159.305 51.8359C159.109 52.1875 158.961 52.6016 158.859 53.0781C158.766 53.5469 158.719 54.0625 158.719 54.625V55.0938C158.719 55.6016 158.789 56.0703 158.93 56.5C159.078 56.9297 159.285 57.3008 159.551 57.6133C159.824 57.9258 160.152 58.168 160.535 58.3398C160.926 58.5117 161.367 58.5977 161.859 58.5977C162.469 58.5977 163.035 58.4805 163.559 58.2461C164.09 58.0039 164.547 57.6406 164.93 57.1562L166.57 58.9375C166.305 59.3203 165.941 59.6875 165.48 60.0391C165.027 60.3906 164.48 60.6797 163.84 60.9062C163.199 61.125 162.469 61.2344 161.648 61.2344ZM175.629 54.918H171.281V52.1758H175.629C176.301 52.1758 176.848 52.0664 177.27 51.8477C177.691 51.6211 178 51.3086 178.195 50.9102C178.391 50.5117 178.488 50.0625 178.488 49.5625C178.488 49.0547 178.391 48.582 178.195 48.1445C178 47.707 177.691 47.3555 177.27 47.0898C176.848 46.8242 176.301 46.6914 175.629 46.6914H172.5V61H168.984V43.9375H175.629C176.965 43.9375 178.109 44.1797 179.062 44.6641C180.023 45.1406 180.758 45.8008 181.266 46.6445C181.773 47.4883 182.027 48.4531 182.027 49.5391C182.027 50.6406 181.773 51.5938 181.266 52.3984C180.758 53.2031 180.023 53.8242 179.062 54.2617C178.109 54.6992 176.965 54.918 175.629 54.918ZM191.742 57.9648V48.3203H195.117V61H191.941L191.742 57.9648ZM192.117 55.3633L193.113 55.3398C193.113 56.1836 193.016 56.9688 192.82 57.6953C192.625 58.4141 192.332 59.0391 191.941 59.5703C191.551 60.0938 191.059 60.5039 190.465 60.8008C189.871 61.0898 189.172 61.2344 188.367 61.2344C187.75 61.2344 187.18 61.1484 186.656 60.9766C186.141 60.7969 185.695 60.5195 185.32 60.1445C184.953 59.7617 184.664 59.2734 184.453 58.6797C184.25 58.0781 184.148 57.3555 184.148 56.5117V48.3203H187.523V56.5352C187.523 56.9102 187.566 57.2266 187.652 57.4844C187.746 57.7422 187.875 57.9531 188.039 58.1172C188.203 58.2812 188.395 58.3984 188.613 58.4688C188.84 58.5391 189.09 58.5742 189.363 58.5742C190.059 58.5742 190.605 58.4336 191.004 58.1523C191.41 57.8711 191.695 57.4883 191.859 57.0039C192.031 56.5117 192.117 55.9648 192.117 55.3633ZM201.258 43V61H197.871V43H201.258ZM209.883 61.2344C208.898 61.2344 208.016 61.0781 207.234 60.7656C206.453 60.4453 205.789 60.0039 205.242 59.4414C204.703 58.8789 204.289 58.2266 204 57.4844C203.711 56.7344 203.566 55.9375 203.566 55.0938V54.625C203.566 53.6641 203.703 52.7852 203.977 51.9883C204.25 51.1914 204.641 50.5 205.148 49.9141C205.664 49.3281 206.289 48.8789 207.023 48.5664C207.758 48.2461 208.586 48.0859 209.508 48.0859C210.406 48.0859 211.203 48.2344 211.898 48.5312C212.594 48.8281 213.176 49.25 213.645 49.7969C214.121 50.3438 214.48 51 214.723 51.7656C214.965 52.5234 215.086 53.3672 215.086 54.2969V55.7031H205.008V53.4531H211.77V53.1953C211.77 52.7266 211.684 52.3086 211.512 51.9414C211.348 51.5664 211.098 51.2695 210.762 51.0508C210.426 50.832 209.996 50.7227 209.473 50.7227C209.027 50.7227 208.645 50.8203 208.324 51.0156C208.004 51.2109 207.742 51.4844 207.539 51.8359C207.344 52.1875 207.195 52.6016 207.094 53.0781C207 53.5469 206.953 54.0625 206.953 54.625V55.0938C206.953 55.6016 207.023 56.0703 207.164 56.5C207.312 56.9297 207.52 57.3008 207.785 57.6133C208.059 57.9258 208.387 58.168 208.77 58.3398C209.16 58.5117 209.602 58.5977 210.094 58.5977C210.703 58.5977 211.27 58.4805 211.793 58.2461C212.324 58.0039 212.781 57.6406 213.164 57.1562L214.805 58.9375C214.539 59.3203 214.176 59.6875 213.715 60.0391C213.262 60.3906 212.715 60.6797 212.074 60.9062C211.434 61.125 210.703 61.2344 209.883 61.2344Z" fill="#888888"/>
<path d="M112.125 84.875V119H103.898V84.875H112.125ZM122.391 84.875V91.2266H93.8672V84.875H122.391ZM135.68 119.469C133.617 119.469 131.773 119.148 130.148 118.508C128.523 117.852 127.148 116.953 126.023 115.812C124.914 114.672 124.062 113.359 123.469 111.875C122.891 110.391 122.602 108.82 122.602 107.164V106.273C122.602 104.414 122.859 102.695 123.375 101.117C123.891 99.5234 124.656 98.1328 125.672 96.9453C126.688 95.7578 127.961 94.8359 129.492 94.1797C131.023 93.5078 132.805 93.1719 134.836 93.1719C136.633 93.1719 138.242 93.4609 139.664 94.0391C141.086 94.6172 142.289 95.4453 143.273 96.5234C144.273 97.6016 145.031 98.9062 145.547 100.438C146.078 101.969 146.344 103.688 146.344 105.594V108.805H125.625V103.859H138.633V103.25C138.648 102.406 138.5 101.688 138.188 101.094C137.891 100.5 137.453 100.047 136.875 99.7344C136.297 99.4219 135.594 99.2656 134.766 99.2656C133.906 99.2656 133.195 99.4531 132.633 99.8281C132.086 100.203 131.656 100.719 131.344 101.375C131.047 102.016 130.836 102.758 130.711 103.602C130.586 104.445 130.523 105.336 130.523 106.273V107.164C130.523 108.102 130.648 108.953 130.898 109.719C131.164 110.484 131.539 111.141 132.023 111.688C132.523 112.219 133.117 112.633 133.805 112.93C134.508 113.227 135.305 113.375 136.195 113.375C137.273 113.375 138.336 113.172 139.383 112.766C140.43 112.359 141.328 111.688 142.078 110.75L145.664 115.016C145.148 115.75 144.414 116.461 143.461 117.148C142.523 117.836 141.398 118.398 140.086 118.836C138.773 119.258 137.305 119.469 135.68 119.469ZM160.266 113.375C161 113.375 161.625 113.242 162.141 112.977C162.672 112.695 163.07 112.305 163.336 111.805C163.617 111.289 163.75 110.672 163.734 109.953H171.164C171.18 111.859 170.711 113.531 169.758 114.969C168.82 116.391 167.539 117.5 165.914 118.297C164.305 119.078 162.484 119.469 160.453 119.469C158.469 119.469 156.734 119.148 155.25 118.508C153.766 117.852 152.523 116.945 151.523 115.789C150.539 114.617 149.797 113.25 149.297 111.688C148.812 110.125 148.57 108.43 148.57 106.602V106.062C148.57 104.234 148.812 102.539 149.297 100.977C149.797 99.3984 150.539 98.0312 151.523 96.875C152.523 95.7031 153.758 94.7969 155.227 94.1562C156.711 93.5 158.438 93.1719 160.406 93.1719C162.516 93.1719 164.375 93.5703 165.984 94.3672C167.609 95.1641 168.883 96.3203 169.805 97.8359C170.727 99.3516 171.18 101.188 171.164 103.344H163.734C163.75 102.578 163.633 101.891 163.383 101.281C163.133 100.672 162.742 100.188 162.211 99.8281C161.695 99.4531 161.031 99.2656 160.219 99.2656C159.406 99.2656 158.75 99.4453 158.25 99.8047C157.75 100.164 157.367 100.664 157.102 101.305C156.852 101.93 156.68 102.648 156.586 103.461C156.508 104.273 156.469 105.141 156.469 106.062V106.602C156.469 107.539 156.508 108.422 156.586 109.25C156.68 110.062 156.859 110.781 157.125 111.406C157.391 112.016 157.773 112.5 158.273 112.859C158.773 113.203 159.438 113.375 160.266 113.375ZM182.273 83V119H174.375V83H182.273ZM181.336 105.453L179.484 105.5C179.484 103.719 179.703 102.078 180.141 100.578C180.578 99.0781 181.203 97.7734 182.016 96.6641C182.828 95.5547 183.805 94.6953 184.945 94.0859C186.086 93.4766 187.352 93.1719 188.742 93.1719C189.992 93.1719 191.133 93.3516 192.164 93.7109C193.211 94.0703 194.109 94.6484 194.859 95.4453C195.625 96.2422 196.211 97.2812 196.617 98.5625C197.039 99.8438 197.25 101.406 197.25 103.25V119H189.305V103.203C189.305 102.172 189.156 101.375 188.859 100.812C188.578 100.234 188.172 99.8359 187.641 99.6172C187.109 99.3828 186.461 99.2656 185.695 99.2656C184.773 99.2656 184.023 99.4219 183.445 99.7344C182.867 100.047 182.422 100.484 182.109 101.047C181.812 101.594 181.609 102.242 181.5 102.992C181.391 103.742 181.336 104.562 181.336 105.453ZM231.539 109.93C231.539 109.398 231.461 108.922 231.305 108.5C231.148 108.062 230.859 107.656 230.438 107.281C230.016 106.906 229.406 106.531 228.609 106.156C227.828 105.766 226.797 105.359 225.516 104.938C224.016 104.438 222.57 103.875 221.18 103.25C219.789 102.609 218.547 101.867 217.453 101.023C216.359 100.164 215.492 99.1641 214.852 98.0234C214.211 96.8672 213.891 95.5234 213.891 93.9922C213.891 92.5234 214.219 91.2031 214.875 90.0312C215.531 88.8438 216.445 87.8359 217.617 87.0078C218.805 86.1641 220.195 85.5234 221.789 85.0859C223.383 84.6328 225.125 84.4062 227.016 84.4062C229.516 84.4062 231.719 84.8438 233.625 85.7188C235.547 86.5781 237.047 87.8047 238.125 89.3984C239.219 90.9766 239.766 92.8438 239.766 95H231.586C231.586 94.1406 231.406 93.3828 231.047 92.7266C230.703 92.0703 230.18 91.5547 229.477 91.1797C228.773 90.8047 227.891 90.6172 226.828 90.6172C225.797 90.6172 224.93 90.7734 224.227 91.0859C223.523 91.3984 222.992 91.8203 222.633 92.3516C222.273 92.8672 222.094 93.4375 222.094 94.0625C222.094 94.5781 222.234 95.0469 222.516 95.4688C222.812 95.875 223.227 96.2578 223.758 96.6172C224.305 96.9766 224.961 97.3203 225.727 97.6484C226.508 97.9766 227.383 98.2969 228.352 98.6094C230.164 99.1875 231.773 99.8359 233.18 100.555C234.602 101.258 235.797 102.062 236.766 102.969C237.75 103.859 238.492 104.875 238.992 106.016C239.508 107.156 239.766 108.445 239.766 109.883C239.766 111.414 239.469 112.773 238.875 113.961C238.281 115.148 237.43 116.156 236.32 116.984C235.211 117.797 233.883 118.414 232.336 118.836C230.789 119.258 229.062 119.469 227.156 119.469C225.406 119.469 223.68 119.25 221.977 118.812C220.289 118.359 218.758 117.672 217.383 116.75C216.008 115.812 214.906 114.617 214.078 113.164C213.266 111.695 212.859 109.953 212.859 107.938H221.109C221.109 108.938 221.242 109.781 221.508 110.469C221.773 111.156 222.164 111.711 222.68 112.133C223.195 112.539 223.828 112.836 224.578 113.023C225.328 113.195 226.188 113.281 227.156 113.281C228.203 113.281 229.047 113.133 229.688 112.836C230.328 112.523 230.797 112.117 231.094 111.617C231.391 111.102 231.539 110.539 231.539 109.93ZM256.992 93.6406V99.125H241.711V93.6406H256.992ZM244.922 87.3359H252.82V110.727C252.82 111.398 252.898 111.922 253.055 112.297C253.211 112.656 253.477 112.914 253.852 113.07C254.242 113.211 254.758 113.281 255.398 113.281C255.852 113.281 256.227 113.273 256.523 113.258C256.82 113.227 257.102 113.188 257.367 113.141V118.789C256.695 119.008 255.992 119.172 255.258 119.281C254.523 119.406 253.742 119.469 252.914 119.469C251.227 119.469 249.781 119.203 248.578 118.672C247.391 118.141 246.484 117.305 245.859 116.164C245.234 115.023 244.922 113.539 244.922 111.711V87.3359ZM273.305 112.625V102.172C273.305 101.453 273.203 100.836 273 100.32C272.797 99.8047 272.477 99.4062 272.039 99.125C271.602 98.8281 271.016 98.6797 270.281 98.6797C269.688 98.6797 269.18 98.7812 268.758 98.9844C268.336 99.1875 268.016 99.4922 267.797 99.8984C267.578 100.305 267.469 100.82 267.469 101.445H259.57C259.57 100.273 259.828 99.1875 260.344 98.1875C260.875 97.1719 261.625 96.2891 262.594 95.5391C263.578 94.7891 264.75 94.2109 266.109 93.8047C267.484 93.3828 269.016 93.1719 270.703 93.1719C272.719 93.1719 274.516 93.5078 276.094 94.1797C277.688 94.8516 278.945 95.8594 279.867 97.2031C280.789 98.5312 281.25 100.203 281.25 102.219V112.602C281.25 114.258 281.344 115.516 281.531 116.375C281.719 117.219 281.984 117.961 282.328 118.602V119H274.406C274.031 118.219 273.75 117.266 273.562 116.141C273.391 115 273.305 113.828 273.305 112.625ZM274.266 103.508L274.312 107.727H270.82C270.086 107.727 269.461 107.828 268.945 108.031C268.445 108.234 268.039 108.516 267.727 108.875C267.43 109.219 267.211 109.609 267.07 110.047C266.945 110.484 266.883 110.945 266.883 111.43C266.883 111.898 266.992 112.32 267.211 112.695C267.445 113.055 267.758 113.336 268.148 113.539C268.539 113.742 268.977 113.844 269.461 113.844C270.336 113.844 271.078 113.68 271.688 113.352C272.312 113.008 272.789 112.594 273.117 112.109C273.445 111.625 273.609 111.172 273.609 110.75L275.344 113.984C275.031 114.609 274.672 115.242 274.266 115.883C273.875 116.523 273.383 117.117 272.789 117.664C272.211 118.195 271.5 118.633 270.656 118.977C269.812 119.305 268.789 119.469 267.586 119.469C266.023 119.469 264.586 119.148 263.273 118.508C261.977 117.867 260.938 116.977 260.156 115.836C259.375 114.68 258.984 113.352 258.984 111.852C258.984 110.539 259.219 109.367 259.688 108.336C260.172 107.305 260.898 106.43 261.867 105.711C262.836 104.992 264.07 104.445 265.57 104.07C267.07 103.695 268.836 103.508 270.867 103.508H274.266ZM296.344 113.375C297.078 113.375 297.703 113.242 298.219 112.977C298.75 112.695 299.148 112.305 299.414 111.805C299.695 111.289 299.828 110.672 299.812 109.953H307.242C307.258 111.859 306.789 113.531 305.836 114.969C304.898 116.391 303.617 117.5 301.992 118.297C300.383 119.078 298.562 119.469 296.531 119.469C294.547 119.469 292.812 119.148 291.328 118.508C289.844 117.852 288.602 116.945 287.602 115.789C286.617 114.617 285.875 113.25 285.375 111.688C284.891 110.125 284.648 108.43 284.648 106.602V106.062C284.648 104.234 284.891 102.539 285.375 100.977C285.875 99.3984 286.617 98.0312 287.602 96.875C288.602 95.7031 289.836 94.7969 291.305 94.1562C292.789 93.5 294.516 93.1719 296.484 93.1719C298.594 93.1719 300.453 93.5703 302.062 94.3672C303.688 95.1641 304.961 96.3203 305.883 97.8359C306.805 99.3516 307.258 101.188 307.242 103.344H299.812C299.828 102.578 299.711 101.891 299.461 101.281C299.211 100.672 298.82 100.188 298.289 99.8281C297.773 99.4531 297.109 99.2656 296.297 99.2656C295.484 99.2656 294.828 99.4453 294.328 99.8047C293.828 100.164 293.445 100.664 293.18 101.305C292.93 101.93 292.758 102.648 292.664 103.461C292.586 104.273 292.547 105.141 292.547 106.062V106.602C292.547 107.539 292.586 108.422 292.664 109.25C292.758 110.062 292.938 110.781 293.203 111.406C293.469 112.016 293.852 112.5 294.352 112.859C294.852 113.203 295.516 113.375 296.344 113.375ZM318.586 82.9766V119H310.688V82.9766H318.586ZM334.805 93.6406L323.789 106.555L318.023 112.32L314.578 107.305L319.383 101.047L325.336 93.6406H334.805ZM326.344 119L319.57 107.445L325.406 103.297L335.391 119H326.344Z" fill="black"/>
<path d="M1134 0H1348C1356.28 0 1363 6.71573 1363 15V148C1363 156.284 1356.28 163 1348 163H1134V0Z" fill="#7A7A7A"/>
<path fill-rule="evenodd" clip-rule="evenodd" d="M1218.75 53C1218.62 53 1218.49 53.0527 1218.4 53.1464C1218.3 53.2402 1218.25 53.3674 1218.25 53.5V109.5C1218.25 109.633 1218.3 109.76 1218.4 109.854C1218.49 109.947 1218.62 110 1218.75 110H1278.25C1278.38 110 1278.51 109.947 1278.6 109.854C1278.7 109.76 1278.75 109.633 1278.75 109.5V64C1278.75 63.8674 1278.7 63.7402 1278.6 63.6464C1278.51 63.5527 1278.38 63.5 1278.25 63.5H1248.5C1247.61 63.5 1246.77 63.1045 1246.2 62.4206L1238.34 53H1218.75ZM1214.15 48.9038C1215.37 47.6848 1217.03 47 1218.75 47H1239.75C1240.64 47 1241.48 47.3955 1242.05 48.0794L1249.91 57.5H1278.25C1279.97 57.5 1281.63 58.1848 1282.85 59.4038C1284.07 60.6228 1284.75 62.2761 1284.75 64V109.5C1284.75 111.224 1284.07 112.877 1282.85 114.096C1281.63 115.315 1279.97 116 1278.25 116H1218.75C1217.03 116 1215.37 115.315 1214.15 114.096C1212.93 112.877 1212.25 111.224 1212.25 109.5V53.5C1212.25 51.7761 1212.93 50.1228 1214.15 48.9038Z" fill="white"/>
<path fill-rule="evenodd" clip-rule="evenodd" d="M1243.97 75.5251C1245.34 76.892 1245.34 79.108 1243.97 80.4749L1237.7 86.75L1243.97 93.0251C1245.34 94.392 1245.34 96.608 1243.97 97.9749C1242.61 99.3417 1240.39 99.3417 1239.03 97.9749L1230.28 89.2249C1228.91 87.858 1228.91 85.642 1230.28 84.2751L1239.03 75.5251C1240.39 74.1583 1242.61 74.1583 1243.97 75.5251Z" fill="white"/>
<path fill-rule="evenodd" clip-rule="evenodd" d="M1252.28 97.9749C1250.91 96.608 1250.91 94.392 1252.28 93.0251L1258.55 86.75L1252.28 80.4749C1250.91 79.108 1250.91 76.892 1252.28 75.5251C1253.64 74.1583 1255.86 74.1583 1257.22 75.5251L1265.97 84.2751C1267.34 85.642 1267.34 87.858 1265.97 89.2249L1257.22 97.9749C1255.86 99.3417 1253.64 99.3417 1252.28 97.9749Z" fill="white"/>
</svg>
