<svg width="1363" height="163" viewBox="0 0 1363 163" fill="none" xmlns="http://www.w3.org/2000/svg">
<path d="M0 15C0 6.71573 6.71573 0 15 0H37V163H15C6.71573 163 0 156.284 0 148V15Z" fill="#7A7A7A"/>
<rect width="1097" height="163" transform="translate(37)" fill="#F0F0F0"/>
<path d="M101.906 53.9219L94.3945 51.2383V48.0859L104.602 52.375V54.6367L101.906 53.9219ZM94.3945 56.1719L101.918 53.4297L104.602 52.7852V55.0352L94.3945 59.3242V56.1719ZM119.543 54.918H115.195V52.1758H119.543C120.215 52.1758 120.762 52.0664 121.184 51.8477C121.605 51.6211 121.914 51.3086 122.109 50.9102C122.305 50.5117 122.402 50.0625 122.402 49.5625C122.402 49.0547 122.305 48.582 122.109 48.1445C121.914 47.707 121.605 47.3555 121.184 47.0898C120.762 46.8242 120.215 46.6914 119.543 46.6914H116.414V61H112.898V43.9375H119.543C120.879 43.9375 122.023 44.1797 122.977 44.6641C123.938 45.1406 124.672 45.8008 125.18 46.6445C125.688 47.4883 125.941 48.4531 125.941 49.5391C125.941 50.6406 125.688 51.5938 125.18 52.3984C124.672 53.2031 123.938 53.8242 122.977 54.2617C122.023 54.6992 120.879 54.918 119.543 54.918ZM131.531 51.0859V61H128.156V48.3203H131.332L131.531 51.0859ZM135.352 48.2383L135.293 51.3672C135.129 51.3438 134.93 51.3242 134.695 51.3086C134.469 51.2852 134.262 51.2734 134.074 51.2734C133.598 51.2734 133.184 51.3359 132.832 51.4609C132.488 51.5781 132.199 51.7539 131.965 51.9883C131.738 52.2227 131.566 52.5078 131.449 52.8438C131.34 53.1797 131.277 53.5625 131.262 53.9922L130.582 53.7812C130.582 52.9609 130.664 52.207 130.828 51.5195C130.992 50.8242 131.23 50.2188 131.543 49.7031C131.863 49.1875 132.254 48.7891 132.715 48.5078C133.176 48.2266 133.703 48.0859 134.297 48.0859C134.484 48.0859 134.676 48.1016 134.871 48.1328C135.066 48.1562 135.227 48.1914 135.352 48.2383ZM140.508 48.3203V61H137.121V48.3203H140.508ZM136.91 45.0156C136.91 44.5234 137.082 44.1172 137.426 43.7969C137.77 43.4766 138.23 43.3164 138.809 43.3164C139.379 43.3164 139.836 43.4766 140.18 43.7969C140.531 44.1172 140.707 44.5234 140.707 45.0156C140.707 45.5078 140.531 45.9141 140.18 46.2344C139.836 46.5547 139.379 46.7148 138.809 46.7148C138.23 46.7148 137.77 46.5547 137.426 46.2344C137.082 45.9141 136.91 45.5078 136.91 45.0156ZM148.535 58.5977C148.949 58.5977 149.316 58.5195 149.637 58.3633C149.957 58.1992 150.207 57.9727 150.387 57.6836C150.574 57.3867 150.672 57.0391 150.68 56.6406H153.855C153.848 57.5312 153.609 58.3242 153.141 59.0195C152.672 59.707 152.043 60.25 151.254 60.6484C150.465 61.0391 149.582 61.2344 148.605 61.2344C147.621 61.2344 146.762 61.0703 146.027 60.7422C145.301 60.4141 144.695 59.9609 144.211 59.3828C143.727 58.7969 143.363 58.1172 143.121 57.3438C142.879 56.5625 142.758 55.7266 142.758 54.8359V54.4961C142.758 53.5977 142.879 52.7617 143.121 51.9883C143.363 51.207 143.727 50.5273 144.211 49.9492C144.695 49.3633 145.301 48.9062 146.027 48.5781C146.754 48.25 147.605 48.0859 148.582 48.0859C149.621 48.0859 150.531 48.2852 151.312 48.6836C152.102 49.082 152.719 49.6523 153.164 50.3945C153.617 51.1289 153.848 52 153.855 53.0078H150.68C150.672 52.5859 150.582 52.2031 150.41 51.8594C150.246 51.5156 150.004 51.2422 149.684 51.0391C149.371 50.8281 148.984 50.7227 148.523 50.7227C148.031 50.7227 147.629 50.8281 147.316 51.0391C147.004 51.2422 146.762 51.5234 146.59 51.8828C146.418 52.2344 146.297 52.6367 146.227 53.0898C146.164 53.5352 146.133 54.0039 146.133 54.4961V54.8359C146.133 55.3281 146.164 55.8008 146.227 56.2539C146.289 56.707 146.406 57.1094 146.578 57.4609C146.758 57.8125 147.004 58.0898 147.316 58.293C147.629 58.4961 148.035 58.5977 148.535 58.5977ZM161.648 61.2344C160.664 61.2344 159.781 61.0781 159 60.7656C158.219 60.4453 157.555 60.0039 157.008 59.4414C156.469 58.8789 156.055 58.2266 155.766 57.4844C155.477 56.7344 155.332 55.9375 155.332 55.0938V54.625C155.332 53.6641 155.469 52.7852 155.742 51.9883C156.016 51.1914 156.406 50.5 156.914 49.9141C157.43 49.3281 158.055 48.8789 158.789 48.5664C159.523 48.2461 160.352 48.0859 161.273 48.0859C162.172 48.0859 162.969 48.2344 163.664 48.5312C164.359 48.8281 164.941 49.25 165.41 49.7969C165.887 50.3438 166.246 51 166.488 51.7656C166.73 52.5234 166.852 53.3672 166.852 54.2969V55.7031H156.773V53.4531H163.535V53.1953C163.535 52.7266 163.449 52.3086 163.277 51.9414C163.113 51.5664 162.863 51.2695 162.527 51.0508C162.191 50.832 161.762 50.7227 161.238 50.7227C160.793 50.7227 160.41 50.8203 160.09 51.0156C159.77 51.2109 159.508 51.4844 159.305 51.8359C159.109 52.1875 158.961 52.6016 158.859 53.0781C158.766 53.5469 158.719 54.0625 158.719 54.625V55.0938C158.719 55.6016 158.789 56.0703 158.93 56.5C159.078 56.9297 159.285 57.3008 159.551 57.6133C159.824 57.9258 160.152 58.168 160.535 58.3398C160.926 58.5117 161.367 58.5977 161.859 58.5977C162.469 58.5977 163.035 58.4805 163.559 58.2461C164.09 58.0039 164.547 57.6406 164.93 57.1562L166.57 58.9375C166.305 59.3203 165.941 59.6875 165.48 60.0391C165.027 60.3906 164.48 60.6797 163.84 60.9062C163.199 61.125 162.469 61.2344 161.648 61.2344ZM175.629 54.918H171.281V52.1758H175.629C176.301 52.1758 176.848 52.0664 177.27 51.8477C177.691 51.6211 178 51.3086 178.195 50.9102C178.391 50.5117 178.488 50.0625 178.488 49.5625C178.488 49.0547 178.391 48.582 178.195 48.1445C178 47.707 177.691 47.3555 177.27 47.0898C176.848 46.8242 176.301 46.6914 175.629 46.6914H172.5V61H168.984V43.9375H175.629C176.965 43.9375 178.109 44.1797 179.062 44.6641C180.023 45.1406 180.758 45.8008 181.266 46.6445C181.773 47.4883 182.027 48.4531 182.027 49.5391C182.027 50.6406 181.773 51.5938 181.266 52.3984C180.758 53.2031 180.023 53.8242 179.062 54.2617C178.109 54.6992 176.965 54.918 175.629 54.918ZM191.742 57.9648V48.3203H195.117V61H191.941L191.742 57.9648ZM192.117 55.3633L193.113 55.3398C193.113 56.1836 193.016 56.9688 192.82 57.6953C192.625 58.4141 192.332 59.0391 191.941 59.5703C191.551 60.0938 191.059 60.5039 190.465 60.8008C189.871 61.0898 189.172 61.2344 188.367 61.2344C187.75 61.2344 187.18 61.1484 186.656 60.9766C186.141 60.7969 185.695 60.5195 185.32 60.1445C184.953 59.7617 184.664 59.2734 184.453 58.6797C184.25 58.0781 184.148 57.3555 184.148 56.5117V48.3203H187.523V56.5352C187.523 56.9102 187.566 57.2266 187.652 57.4844C187.746 57.7422 187.875 57.9531 188.039 58.1172C188.203 58.2812 188.395 58.3984 188.613 58.4688C188.84 58.5391 189.09 58.5742 189.363 58.5742C190.059 58.5742 190.605 58.4336 191.004 58.1523C191.41 57.8711 191.695 57.4883 191.859 57.0039C192.031 56.5117 192.117 55.9648 192.117 55.3633ZM201.258 43V61H197.871V43H201.258ZM209.883 61.2344C208.898 61.2344 208.016 61.0781 207.234 60.7656C206.453 60.4453 205.789 60.0039 205.242 59.4414C204.703 58.8789 204.289 58.2266 204 57.4844C203.711 56.7344 203.566 55.9375 203.566 55.0938V54.625C203.566 53.6641 203.703 52.7852 203.977 51.9883C204.25 51.1914 204.641 50.5 205.148 49.9141C205.664 49.3281 206.289 48.8789 207.023 48.5664C207.758 48.2461 208.586 48.0859 209.508 48.0859C210.406 48.0859 211.203 48.2344 211.898 48.5312C212.594 48.8281 213.176 49.25 213.645 49.7969C214.121 50.3438 214.48 51 214.723 51.7656C214.965 52.5234 215.086 53.3672 215.086 54.2969V55.7031H205.008V53.4531H211.77V53.1953C211.77 52.7266 211.684 52.3086 211.512 51.9414C211.348 51.5664 211.098 51.2695 210.762 51.0508C210.426 50.832 209.996 50.7227 209.473 50.7227C209.027 50.7227 208.645 50.8203 208.324 51.0156C208.004 51.2109 207.742 51.4844 207.539 51.8359C207.344 52.1875 207.195 52.6016 207.094 53.0781C207 53.5469 206.953 54.0625 206.953 54.625V55.0938C206.953 55.6016 207.023 56.0703 207.164 56.5C207.312 56.9297 207.52 57.3008 207.785 57.6133C208.059 57.9258 208.387 58.168 208.77 58.3398C209.16 58.5117 209.602 58.5977 210.094 58.5977C210.703 58.5977 211.27 58.4805 211.793 58.2461C212.324 58.0039 212.781 57.6406 213.164 57.1562L214.805 58.9375C214.539 59.3203 214.176 59.6875 213.715 60.0391C213.262 60.3906 212.715 60.6797 212.074 60.9062C211.434 61.125 210.703 61.2344 209.883 61.2344Z" fill="#888888"/>
<path d="M118.594 98.4219V104.75H101.086V98.4219H118.594ZM103.828 84.875V119H95.6016V84.875H103.828ZM124.125 84.875V119H115.922V84.875H124.125ZM127.992 106.578V106.086C127.992 104.227 128.258 102.516 128.789 100.953C129.32 99.375 130.102 98.0078 131.133 96.8516C132.164 95.6953 133.438 94.7969 134.953 94.1562C136.469 93.5 138.219 93.1719 140.203 93.1719C142.203 93.1719 143.961 93.5 145.477 94.1562C147.008 94.7969 148.289 95.6953 149.32 96.8516C150.352 98.0078 151.133 99.375 151.664 100.953C152.195 102.516 152.461 104.227 152.461 106.086V106.578C152.461 108.422 152.195 110.133 151.664 111.711C151.133 113.273 150.352 114.641 149.32 115.812C148.289 116.969 147.016 117.867 145.5 118.508C143.984 119.148 142.234 119.469 140.25 119.469C138.266 119.469 136.508 119.148 134.977 118.508C133.445 117.867 132.164 116.969 131.133 115.812C130.102 114.641 129.32 113.273 128.789 111.711C128.258 110.133 127.992 108.422 127.992 106.578ZM135.891 106.086V106.578C135.891 107.531 135.961 108.422 136.102 109.25C136.242 110.078 136.477 110.805 136.805 111.43C137.133 112.039 137.578 112.516 138.141 112.859C138.703 113.203 139.406 113.375 140.25 113.375C141.078 113.375 141.766 113.203 142.312 112.859C142.875 112.516 143.32 112.039 143.648 111.43C143.977 110.805 144.211 110.078 144.352 109.25C144.492 108.422 144.562 107.531 144.562 106.578V106.086C144.562 105.164 144.492 104.297 144.352 103.484C144.211 102.656 143.977 101.93 143.648 101.305C143.32 100.664 142.875 100.164 142.312 99.8047C141.75 99.4453 141.047 99.2656 140.203 99.2656C139.375 99.2656 138.68 99.4453 138.117 99.8047C137.57 100.164 137.133 100.664 136.805 101.305C136.477 101.93 136.242 102.656 136.102 103.484C135.961 104.297 135.891 105.164 135.891 106.086ZM163.688 111.453L168.375 93.6406H173.32L171.562 102.57L166.922 119H162.961L163.688 111.453ZM161.836 93.6406L164.742 111.312L165.07 119H160.266L154.266 93.6406H161.836ZM177.492 110.938L180.422 93.6406H187.992L182.039 119H177.234L177.492 110.938ZM173.883 93.6406L178.617 111.406L179.344 119H175.336L170.789 102.617L169.102 93.6406H173.883ZM218.297 84.875V119H210.07V84.875H218.297ZM228.562 84.875V91.2266H200.039V84.875H228.562ZM225.773 106.578V106.086C225.773 104.227 226.039 102.516 226.57 100.953C227.102 99.375 227.883 98.0078 228.914 96.8516C229.945 95.6953 231.219 94.7969 232.734 94.1562C234.25 93.5 236 93.1719 237.984 93.1719C239.984 93.1719 241.742 93.5 243.258 94.1562C244.789 94.7969 246.07 95.6953 247.102 96.8516C248.133 98.0078 248.914 99.375 249.445 100.953C249.977 102.516 250.242 104.227 250.242 106.086V106.578C250.242 108.422 249.977 110.133 249.445 111.711C248.914 113.273 248.133 114.641 247.102 115.812C246.07 116.969 244.797 117.867 243.281 118.508C241.766 119.148 240.016 119.469 238.031 119.469C236.047 119.469 234.289 119.148 232.758 118.508C231.227 117.867 229.945 116.969 228.914 115.812C227.883 114.641 227.102 113.273 226.57 111.711C226.039 110.133 225.773 108.422 225.773 106.578ZM233.672 106.086V106.578C233.672 107.531 233.742 108.422 233.883 109.25C234.023 110.078 234.258 110.805 234.586 111.43C234.914 112.039 235.359 112.516 235.922 112.859C236.484 113.203 237.188 113.375 238.031 113.375C238.859 113.375 239.547 113.203 240.094 112.859C240.656 112.516 241.102 112.039 241.43 111.43C241.758 110.805 241.992 110.078 242.133 109.25C242.273 108.422 242.344 107.531 242.344 106.578V106.086C242.344 105.164 242.273 104.297 242.133 103.484C241.992 102.656 241.758 101.93 241.43 101.305C241.102 100.664 240.656 100.164 240.094 99.8047C239.531 99.4453 238.828 99.2656 237.984 99.2656C237.156 99.2656 236.461 99.4453 235.898 99.8047C235.352 100.164 234.914 100.664 234.586 101.305C234.258 101.93 234.023 102.656 233.883 103.484C233.742 104.297 233.672 105.164 233.672 106.086ZM266.086 84.875H279.516C282.141 84.875 284.422 85.2656 286.359 86.0469C288.297 86.8281 289.789 87.9844 290.836 89.5156C291.898 91.0469 292.43 92.9375 292.43 95.1875C292.43 97.1406 292.125 98.7734 291.516 100.086C290.906 101.398 290.055 102.484 288.961 103.344C287.883 104.188 286.625 104.883 285.188 105.43L282.492 106.953H271.219L271.172 100.602H279.516C280.562 100.602 281.43 100.414 282.117 100.039C282.805 99.6641 283.32 99.1328 283.664 98.4453C284.023 97.7422 284.203 96.9062 284.203 95.9375C284.203 94.9531 284.023 94.1094 283.664 93.4062C283.305 92.7031 282.773 92.1641 282.07 91.7891C281.383 91.4141 280.531 91.2266 279.516 91.2266H274.312V119H266.086V84.875ZM284.766 119L277.219 103.906L285.938 103.859L293.578 118.648V119H284.766ZM311.836 112.836V93.6406H319.758V119H312.352L311.836 112.836ZM312.586 107.68L314.648 107.633C314.648 109.336 314.445 110.914 314.039 112.367C313.633 113.805 313.031 115.055 312.234 116.117C311.453 117.18 310.484 118.008 309.328 118.602C308.188 119.18 306.867 119.469 305.367 119.469C304.117 119.469 302.969 119.297 301.922 118.953C300.891 118.594 300 118.039 299.25 117.289C298.5 116.523 297.914 115.547 297.492 114.359C297.086 113.156 296.883 111.719 296.883 110.047V93.6406H304.781V110.094C304.781 110.656 304.852 111.141 304.992 111.547C305.133 111.953 305.336 112.297 305.602 112.578C305.867 112.844 306.195 113.047 306.586 113.188C306.992 113.312 307.453 113.375 307.969 113.375C309.156 113.375 310.086 113.125 310.758 112.625C311.43 112.125 311.898 111.445 312.164 110.586C312.445 109.727 312.586 108.758 312.586 107.68ZM331.875 99.0547V119H323.977V93.6406H331.383L331.875 99.0547ZM330.938 105.453L329.086 105.5C329.086 103.562 329.32 101.836 329.789 100.32C330.258 98.7891 330.922 97.4922 331.781 96.4297C332.641 95.3672 333.664 94.5625 334.852 94.0156C336.055 93.4531 337.391 93.1719 338.859 93.1719C340.031 93.1719 341.102 93.3438 342.07 93.6875C343.055 94.0312 343.898 94.5859 344.602 95.3516C345.32 96.1172 345.867 97.1328 346.242 98.3984C346.633 99.6484 346.828 101.195 346.828 103.039V119H338.883V103.016C338.883 102 338.742 101.227 338.461 100.695C338.18 100.148 337.773 99.7734 337.242 99.5703C336.711 99.3672 336.062 99.2656 335.297 99.2656C334.484 99.2656 333.797 99.4219 333.234 99.7344C332.672 100.047 332.219 100.484 331.875 101.047C331.547 101.594 331.305 102.242 331.148 102.992C331.008 103.742 330.938 104.562 330.938 105.453ZM363.773 108.195H357.047C357.047 106.82 357.141 105.609 357.328 104.562C357.531 103.5 357.875 102.547 358.359 101.703C358.844 100.859 359.5 100.078 360.328 99.3594C361.062 98.75 361.695 98.1641 362.227 97.6016C362.758 97.0391 363.164 96.4688 363.445 95.8906C363.727 95.3125 363.867 94.6953 363.867 94.0391C363.867 93.2266 363.75 92.5625 363.516 92.0469C363.297 91.5312 362.961 91.1484 362.508 90.8984C362.07 90.6328 361.516 90.5 360.844 90.5C360.297 90.5 359.781 90.6328 359.297 90.8984C358.828 91.1641 358.445 91.5781 358.148 92.1406C357.852 92.6875 357.688 93.4141 357.656 94.3203H349.711C349.758 91.9922 350.273 90.1016 351.258 88.6484C352.258 87.1797 353.586 86.1094 355.242 85.4375C356.914 84.75 358.781 84.4062 360.844 84.4062C363.125 84.4062 365.086 84.7578 366.727 85.4609C368.367 86.1641 369.625 87.2109 370.5 88.6016C371.375 89.9766 371.812 91.6719 371.812 93.6875C371.812 95.0312 371.555 96.2031 371.039 97.2031C370.539 98.1875 369.859 99.1094 369 99.9688C368.156 100.812 367.211 101.719 366.164 102.688C365.258 103.484 364.641 104.297 364.312 105.125C363.984 105.938 363.805 106.961 363.773 108.195ZM356.086 115.32C356.086 114.195 356.492 113.258 357.305 112.508C358.117 111.742 359.172 111.359 360.469 111.359C361.766 111.359 362.82 111.742 363.633 112.508C364.445 113.258 364.852 114.195 364.852 115.32C364.852 116.445 364.445 117.391 363.633 118.156C362.82 118.906 361.766 119.281 360.469 119.281C359.172 119.281 358.117 118.906 357.305 118.156C356.492 117.391 356.086 116.445 356.086 115.32Z" fill="black"/>
<path d="M1134 0H1348C1356.28 0 1363 6.71573 1363 15V148C1363 156.284 1356.28 163 1348 163H1134V0Z" fill="#7A7A7A"/>
<path d="M1260.62 78.8078C1263.81 78.8078 1266.93 79.7552 1269.59 81.5302C1272.25 83.3052 1274.32 85.8281 1275.54 88.7798C1276.76 91.7315 1277.08 94.9795 1276.46 98.1131C1275.84 101.247 1274.3 104.125 1272.04 106.384C1269.78 108.643 1266.9 110.182 1263.77 110.805C1260.63 111.428 1257.39 111.108 1254.43 109.886C1251.48 108.663 1248.96 106.593 1247.18 103.936C1245.41 101.28 1244.46 98.1565 1244.46 94.9616C1244.46 90.6774 1246.16 86.5686 1249.19 83.5392C1252.22 80.5097 1256.33 78.8078 1260.62 78.8078ZM1260.62 73.4232C1256.36 73.4232 1252.19 74.6864 1248.65 77.0531C1245.11 79.4198 1242.35 82.7836 1240.72 86.7192C1239.09 90.6549 1238.66 94.9855 1239.49 99.1636C1240.32 103.342 1242.37 107.179 1245.39 110.192C1248.4 113.204 1252.24 115.255 1256.41 116.086C1260.59 116.917 1264.92 116.491 1268.86 114.861C1272.79 113.23 1276.16 110.47 1278.52 106.928C1280.89 103.386 1282.15 99.2215 1282.15 94.9616C1282.15 89.2493 1279.88 83.7709 1275.85 79.7317C1271.81 75.6924 1266.33 73.4232 1260.62 73.4232Z" fill="white"/>
<path d="M1274.08 46.4999H1220.23C1218.8 46.4999 1217.43 47.0672 1216.42 48.0771C1215.41 49.0869 1214.85 50.4565 1214.85 51.8845V105.731C1214.85 107.159 1215.41 108.528 1216.42 109.538C1217.43 110.548 1218.8 111.115 1220.23 111.115H1231V105.731H1220.23V68.0383H1279.46V51.8845C1279.46 50.4565 1278.89 49.0869 1277.88 48.0771C1276.87 47.0672 1275.5 46.4999 1274.08 46.4999ZM1220.23 62.6537V51.8845H1274.08V62.6537H1220.23Z" fill="white"/>
<path d="M1255.23 86.8848V103.039L1268.69 94.9617L1255.23 86.8848Z" fill="white"/>
</svg>
